<?xml version="1.0" encoding="UTF-8"?>
<svg width="23px" height="19px" viewBox="0 0 23 19" version="1.1" xmlns="http://www.w3.org/2000/svg" xmlns:xlink="http://www.w3.org/1999/xlink">
    <title>icon-Friends-2</title>
    <g id="页面-1" stroke="none" stroke-width="1" fill="none" fill-rule="evenodd" opacity="0.5">
        <g id="Earn备份" transform="translate(-218, -744)" stroke="#FFFFFF" stroke-width="2">
            <g id="bottom-bar" transform="translate(0, 729)">
                <g id="Friends-2" transform="translate(187, 7)">
                    <g id="编组" transform="translate(32, 9.5)">
                        <circle id="椭圆形" cx="10.5" cy="4" r="3.5"></circle>
                        <path d="M16,6 C17.6568542,6 19,4.65685425 19,3 C19,1.34314575 17.6568542,0 16,0" id="椭圆形备份" stroke-linecap="round"></path>
                        <path d="M2,6 C3.65685425,6 5,4.65685425 5,3 C5,1.34314575 3.65685425,0 2,0" id="椭圆形备份-3" stroke-linecap="round" transform="translate(3.5, 3) scale(-1, 1) translate(-3.5, -3)"></path>
                        <path d="M3,16.5 C3.71428571,12.5 6.21428571,10.5 10.5,10.5 C14.7857143,10.5 17.2857143,12.5 18,16.5" id="路径" stroke-linecap="round"></path>
                        <path d="M21,12.5 C21,10.9 20,9.56666667 18,8.5" id="路径-3" stroke-linecap="round"></path>
                        <path d="M3,12.5 C3,10.9 2,9.56666667 0,8.5" id="路径-3备份" stroke-linecap="round" transform="translate(1.5, 10.5) scale(-1, 1) translate(-1.5, -10.5)"></path>
                    </g>
                </g>
            </g>
        </g>
    </g>
</svg>